<?xml version="1.0" encoding="UTF-8"?>
<svg xmlns="http://www.w3.org/2000/svg" xmlns:xlink="http://www.w3.org/1999/xlink" viewBox="0 0 333.46 180.8">
  <defs>
    <clipPath id="clippath">
      <rect x="0" y="0" width="333.46" height="180.8" style="fill: none;"/>
    </clipPath>
  </defs>
  <g id="back">
    <rect x="0" y="0" width="333.46" height="180.8"/>
  </g>
  <g id="LOGO">
    <g style="clip-path: url(#clippath);">
      <path d="M194.55,44.41h-1.78v-1.71h1.8v-2.24l2.06-.71v2.94h2.45v1.71h-2.45v4.37c0,1.61.26,2.35,1.51,2.35.37,0,.71-.08,1-.2l.06,1.75c-.45.16-1,.25-1.59.25-2.33,0-3.06-1.29-3.06-3.55v-4.98ZM190.87,38.53h-2.29v2.29h2.29v-2.29ZM225.74,85.86h-10.01v-6.91h9.29v-4.34h-9.29v-6.31h9.78v-4.38h-15v26.37h15.23v-4.42ZM175.42,77.09c0,8.54,4.91,13.45,12.81,13.45,2.15,0,4.12-.3,5.59-.87l-.15-4.57c-1.85.79-3.44,1.02-5.33,1.02-4.27,0-7.29-2.95-7.29-9.18s2.87-8.99,7.25-8.99c1.96,0,3.4.3,5.06,1.17l.3-4.57c-1.93-.76-3.59-.91-5.74-.91-7.59,0-12.51,4.91-12.51,13.45ZM190.81,52.72v-10.04h-2.18v10.04h2.18ZM161.58,52.72h2.14v-4.67c0-1.1.14-1.86.43-2.41.45-.82,1.2-1.37,2.04-1.37,1.78,0,1.92,1.51,1.92,3.55v4.9h2.16v-5.8c0-2.71-.9-4.47-3.49-4.47-1.35,0-2.47.69-3.1,1.86h-.04c0-.53-.02-1.2-.06-1.63h-2.08c.08.96.08,2.02.08,3.04v7ZM213.53,49.39c0,2.25.72,3.55,3.06,3.55.59,0,1.14-.1,1.59-.25l-.06-1.75c-.29.12-.63.2-1,.2-1.25,0-1.51-.75-1.51-2.35v-4.37h2.45v-1.71h-2.45v-2.94l-2.06.71v2.24h-1.8v1.71h1.78v4.98ZM234.78,47.7c0-3.14,2.06-5.25,5-5.25s5,2.12,5,5.25-2.06,5.25-5,5.25-5-2.12-5-5.25ZM237.06,47.7c0,2.14,1.06,3.49,2.73,3.49s2.72-1.35,2.72-3.49-1.06-3.49-2.72-3.49-2.73,1.35-2.73,3.49ZM235.48,69.42h.08l8.58,20.85h6.69v-26.37h-4.8l.23,20.74h-.04l-8.5-20.74h-6.76v26.37h4.76l-.23-20.85ZM248.14,52.72h2.14v-8.31h2.47v-1.71h-2.47v-.86c0-1.59.37-2.23,1.45-2.23.35,0,.67.06.98.18l.18-1.78c-.43-.12-.9-.18-1.43-.18-2.39,0-3.31,1.47-3.31,4.06v.82h-2.12v1.71h2.12v8.31ZM219.59,47.64c0-3.1,1.88-5.2,4.67-5.2s4.18,1.67,4.18,5.24c0,.27-.02.47-.04.67h-6.61c.06,1.74,1.27,2.82,3.1,2.82,1.08,0,1.96-.26,2.8-.76l.08,1.94c-.84.41-1.92.61-3.08.61-3.18,0-5.1-1.98-5.1-5.31ZM221.79,46.74h4.51c0-1.82-.84-2.67-2.1-2.67s-2.27.86-2.41,2.67ZM268.54,90.54c2.15,0,4.12-.3,5.59-.87l-.15-4.57c-1.85.79-3.44,1.02-5.33,1.02-4.27,0-7.29-2.95-7.29-9.18s2.87-8.99,7.25-8.99c1.96,0,3.4.3,5.06,1.17l.3-4.57c-1.93-.76-3.59-.91-5.74-.91-7.59,0-12.51,4.91-12.51,13.45s4.91,13.45,12.81,13.45ZM181.85,49.39c0,2.25.72,3.55,3.06,3.55.59,0,1.14-.1,1.59-.25l-.06-1.75c-.29.12-.63.2-1,.2-1.25,0-1.51-.75-1.51-2.35v-4.37h2.45v-1.71h-2.45v-2.94l-2.06.71v2.24h-1.8v1.71h1.78v4.98ZM207.79,51.13h.04c0,.65.04,1.18.1,1.59h2.04c-.08-.84-.12-1.94-.12-3.2v-6.84h-2.16v5.1c0,1.8-.96,3.33-2.43,3.33-1.67,0-1.94-1.27-1.94-3.35v-5.08h-2.14v6.31c0,2.47,1.31,3.96,3.37,3.96,1.69,0,2.74-.78,3.23-1.82ZM224.42,101.72h-6.16l-7.78,11.56h-.08v-11.56h-5.29v26.37h5.29v-12.81h.08l9.37,12.81h6.65l-11.07-14.05,8.99-12.32ZM198.88,90.28h5.29v-26.37h-5.29v26.37ZM274.36,114.9c0,8.69-4.8,13.64-12.35,13.64s-12.39-4.95-12.39-13.64,4.8-13.64,12.39-13.64,12.35,4.95,12.35,13.64ZM268.73,114.9c0-6.5-2.64-9.52-6.72-9.52s-6.73,3.02-6.73,9.52,2.65,9.52,6.73,9.52,6.72-3.02,6.72-9.52ZM284.41,85.86v-6.91h9.29v-4.34h-9.29v-6.31h9.79v-4.38h-15v26.37h15.23v-4.42h-10.01ZM158.38,39.04h-2.29v13.68h2.29v-13.68ZM200.12,114.9c0,8.69-4.8,13.64-12.35,13.64s-12.39-4.95-12.39-13.64,4.8-13.64,12.39-13.64,12.35,4.95,12.35,13.64ZM194.5,114.9c0-6.5-2.64-9.52-6.72-9.52s-6.73,3.02-6.73,9.52,2.64,9.52,6.73,9.52,6.72-3.02,6.72-9.52ZM237.11,112.9h-.08l-5.44-11.18h-5.89l8.69,15.98v10.39h5.29v-10.46l8.73-15.9h-5.7l-5.59,11.18ZM161.25,78.64c3.89,1.47,4.99,2.53,4.99,4.53,0,2.12-1.81,3.29-4.72,3.29-1.81,0-3.93-.42-6.12-1.51l-.49,4.65c2.15.76,4.46,1.13,6.91,1.13,6.12,0,9.75-3.1,9.75-8.24,0-3.89-2.04-6.16-6.84-7.9-3.82-1.4-4.68-2.42-4.68-4.04,0-1.81,1.74-2.98,4.5-2.98,1.59,0,3.21.3,5.25,1.13l.42-4.31c-2.04-.68-3.97-.94-6.27-.94-5.52,0-9.26,2.95-9.26,7.63,0,3.74,1.96,5.86,6.57,7.56ZM178.99,49.84c0-1.53-.84-2.31-2.59-3.02-1.31-.51-1.78-.8-1.78-1.55s.67-1.16,1.53-1.16c.71,0,1.39.14,2.14.51l.2-1.76c-.67-.27-1.51-.41-2.39-.41-2.14,0-3.59,1.14-3.59,3,0,1.37.65,2.1,2.39,2.84,1.51.65,1.94.98,1.94,1.73,0,.8-.77,1.23-1.71,1.23-.76,0-1.61-.22-2.43-.67l-.14,1.86c.88.35,1.73.51,2.71.51,2.18,0,3.73-1.08,3.73-3.12ZM153.54,106.21l7.22-.04v21.91h5.36v-21.91l7.22.04v-4.5h-19.8v4.5ZM40.3,92.75c23.76-19.12,54.69-24.89,85.49-24.89v-28.82c-36.98,0-67.77,10.69-85.06,25.17-.98.84-1.69,1.97-1.69,3.51v26.71c0-.56.42-.98,1.27-1.69ZM122.56,100.76c-31.92,1.97-62.43,11.81-83.52,26.85v31.49c19.61-13.54,48.11-25.14,75.13-28.97.33-.04,6.93-1.01,7.76-1.13,1-.15,3.08-.38,3.69-1.69.13-.28.17-.64.17-.89v-26.8c0,.7-1.27.98-3.23,1.12ZM42.52,95.46s-.04.03-.06.05c11.71,1.41,24.87,4.36,37.42,9.14,13.36-3.93,27.76-6.47,42.44-7.38.43-.03.75-.06.98-.1.05-.05.1-.09.15-.13-12.92-8.9-28.68-15.5-46.66-19.23-5.62,1.71-10.96,3.77-15.91,6.15-6.66,3.2-12.83,7.07-18.35,11.51Z" style="fill: #fff;"/>
    </g>
  </g>
</svg>