<?xml version="1.0" encoding="UTF-8"?>
<svg xmlns="http://www.w3.org/2000/svg" viewBox="0 0 333.46 180.8">
  <g id="back">
    <rect width="333.46" height="180.8"/>
  </g>
  <g id="LOGO">
    <g>
      <g>
        <path d="M158.38,39.04v13.68h-2.29v-13.68h2.29ZM161.5,42.68h2.08c.04.43.06,1.1.06,1.63h.04c.63-1.18,1.74-1.86,3.1-1.86,2.59,0,3.49,1.76,3.49,4.47v5.8h-2.16v-4.9c0-2.04-.14-3.55-1.92-3.55-.84,0-1.59.55-2.04,1.37-.29.55-.43,1.31-.43,2.41v4.67h-2.14v-7c0-1.02,0-2.08-.08-3.04ZM172.56,52.45l.14-1.86c.82.45,1.67.67,2.43.67.94,0,1.71-.43,1.71-1.23,0-.75-.43-1.08-1.94-1.73-1.75-.74-2.39-1.47-2.39-2.84,0-1.86,1.45-3,3.59-3,.88,0,1.73.14,2.39.41l-.2,1.76c-.74-.37-1.43-.51-2.14-.51-.86,0-1.53.41-1.53,1.16s.47,1.04,1.78,1.55c1.75.71,2.59,1.49,2.59,3.02,0,2.04-1.55,3.12-3.73,3.12-.98,0-1.82-.16-2.71-.51ZM181.85,49.39v-4.98h-1.78v-1.71h1.8v-2.24l2.06-.71v2.94h2.45v1.71h-2.45v4.37c0,1.61.26,2.35,1.51,2.35.37,0,.71-.08,1-.2l.06,1.75c-.45.16-1,.26-1.59.26-2.33,0-3.06-1.29-3.06-3.55ZM190.87,38.53v2.29h-2.29v-2.29h2.29ZM190.81,42.68v10.04h-2.18v-10.04h2.18ZM194.55,49.39v-4.98h-1.78v-1.71h1.8v-2.24l2.06-.71v2.94h2.45v1.71h-2.45v4.37c0,1.61.26,2.35,1.51,2.35.37,0,.71-.08,1-.2l.06,1.75c-.45.16-1,.26-1.59.26-2.33,0-3.06-1.29-3.06-3.55ZM201.18,49v-6.31h2.14v5.08c0,2.08.27,3.35,1.94,3.35,1.47,0,2.43-1.53,2.43-3.33v-5.1h2.16v6.84c0,1.25.04,2.35.12,3.2h-2.04c-.06-.41-.1-.94-.1-1.59h-.04c-.49,1.04-1.55,1.82-3.23,1.82-2.06,0-3.37-1.49-3.37-3.96ZM213.53,49.39v-4.98h-1.78v-1.71h1.8v-2.24l2.06-.71v2.94h2.45v1.71h-2.45v4.37c0,1.61.26,2.35,1.51,2.35.37,0,.71-.08,1-.2l.06,1.75c-.45.16-1,.26-1.59.26-2.33,0-3.06-1.29-3.06-3.55ZM219.59,47.64c0-3.1,1.88-5.2,4.67-5.2s4.18,1.67,4.18,5.24c0,.27-.02.47-.04.67h-6.61c.06,1.75,1.27,2.82,3.1,2.82,1.08,0,1.96-.26,2.8-.76l.08,1.94c-.84.41-1.92.61-3.08.61-3.18,0-5.1-1.98-5.1-5.31ZM224.2,44.08c-1.27,0-2.27.86-2.41,2.67h4.51c0-1.82-.84-2.67-2.1-2.67ZM234.78,47.7c0-3.14,2.06-5.25,5-5.25s5,2.12,5,5.25-2.06,5.25-5,5.25-5-2.12-5-5.25ZM242.51,47.7c0-2.14-1.06-3.49-2.72-3.49s-2.73,1.35-2.73,3.49,1.06,3.49,2.73,3.49,2.72-1.35,2.72-3.49ZM246.02,44.41v-1.71h2.12v-.82c0-2.59.92-4.06,3.31-4.06.53,0,1,.06,1.43.18l-.18,1.78c-.31-.12-.63-.18-.98-.18-1.08,0-1.45.65-1.45,2.23v.86h2.47v1.71h-2.47v8.31h-2.14v-8.31h-2.12ZM170.2,64.4l-.42,4.31c-2.04-.83-3.66-1.13-5.25-1.13-2.76,0-4.5,1.17-4.5,2.98,0,1.62.87,2.64,4.68,4.04,4.8,1.74,6.84,4,6.84,7.9,0,5.14-3.63,8.24-9.75,8.24-2.46,0-4.76-.38-6.91-1.13l.49-4.65c2.19,1.1,4.31,1.51,6.12,1.51,2.91,0,4.72-1.17,4.72-3.29,0-2-1.1-3.06-4.99-4.53-4.61-1.7-6.57-3.82-6.57-7.56,0-4.68,3.74-7.63,9.26-7.63,2.3,0,4.23.26,6.27.94ZM193.66,85.1l.15,4.57c-1.47.57-3.44.87-5.59.87-7.9,0-12.81-4.91-12.81-13.45s4.91-13.45,12.51-13.45c2.15,0,3.82.15,5.74.91l-.3,4.57c-1.66-.87-3.1-1.17-5.06-1.17-4.38,0-7.25,2.8-7.25,8.99s3.02,9.18,7.29,9.18c1.89,0,3.48-.23,5.33-1.02ZM204.17,63.91v26.37h-5.29v-26.37h5.29ZM210.51,90.28v-26.37h15v4.38h-9.78v6.31h9.29v4.34h-9.29v6.91h10.01v4.42h-15.23ZM246.25,84.65l-.23-20.74h4.8v26.37h-6.69l-8.58-20.85h-.08l.23,20.85h-4.76v-26.37h6.76l8.5,20.74h.04ZM273.98,85.1l.15,4.57c-1.47.57-3.44.87-5.59.87-7.9,0-12.81-4.91-12.81-13.45s4.91-13.45,12.51-13.45c2.15,0,3.82.15,5.74.91l-.3,4.57c-1.66-.87-3.1-1.17-5.06-1.17-4.38,0-7.25,2.8-7.25,8.99s3.02,9.18,7.29,9.18c1.89,0,3.48-.23,5.33-1.02ZM279.19,90.28v-26.37h15v4.38h-9.78v6.31h9.29v4.34h-9.29v6.91h10.01v4.42h-15.23ZM173.34,101.72v4.5l-7.22-.04v21.91h-5.36v-21.91l-7.22.04v-4.5h19.8ZM200.12,114.9c0,8.69-4.8,13.64-12.35,13.64s-12.39-4.95-12.39-13.64,4.8-13.64,12.39-13.64,12.35,4.95,12.35,13.64ZM181.05,114.9c0,6.5,2.64,9.52,6.73,9.52s6.72-3.02,6.72-9.52-2.64-9.52-6.72-9.52-6.73,3.02-6.73,9.52ZM210.4,115.28v12.81h-5.29v-26.37h5.29v11.56h.08l7.78-11.56h6.16l-8.99,12.32,11.07,14.05h-6.65l-9.37-12.81h-.08ZM225.7,101.72h5.89l5.44,11.18h.08l5.59-11.18h5.7l-8.73,15.9v10.46h-5.29v-10.39l-8.69-15.98ZM274.36,114.9c0,8.69-4.8,13.64-12.35,13.64s-12.39-4.95-12.39-13.64,4.8-13.64,12.39-13.64,12.35,4.95,12.35,13.64ZM255.28,114.9c0,6.5,2.64,9.52,6.73,9.52s6.72-3.02,6.72-9.52-2.64-9.52-6.72-9.52-6.73,3.02-6.73,9.52Z" style="fill: #fff;"/>
        <g>
          <path d="M125.79,39.04c-36.98,0-67.77,10.69-85.06,25.17-.98.84-1.69,1.97-1.69,3.52v26.71c0-.56.42-.98,1.27-1.69,23.76-19.12,54.69-24.89,85.49-24.89v-28.82Z" style="fill: #fff;"/>
          <path d="M125.79,126.44v-26.8c0,.7-1.27.98-3.23,1.12-31.92,1.97-62.43,11.81-83.52,26.85v31.49c19.61-13.54,48.11-25.14,75.13-28.97.33-.04,6.93-1.01,7.76-1.13,1-.15,3.08-.37,3.69-1.69.13-.28.17-.64.17-.89Z" style="fill: #fff;"/>
          <path d="M125.79,99.64h0c0-.7-.7-1.41-1.83-2.25-14.69-10.25-33.11-17.5-54.33-20.9-10.52,3.81-20.43,9.1-29.32,16.26-.84.7-1.27,1.12-1.27,1.69s.28.7,1.41.84c13.85,1.48,29.95,5.15,44.75,11.52,11.88-3.17,24.5-5.25,37.36-6.04,1.97-.14,3.23-.42,3.23-1.12Z" style="fill: #fff; opacity: .55;"/>
        </g>
      </g>
      <rect x="0" y="0" width="333.46" height="180.8" style="fill: none;"/>
    </g>
  </g>
</svg>