<?xml version="1.0" encoding="UTF-8"?>
<svg id="LOGO" xmlns="http://www.w3.org/2000/svg" xmlns:xlink="http://www.w3.org/1999/xlink" viewBox="0 0 672.78 179.47">
  <defs>
    <clipPath id="clippath">
      <rect y="0" width="672.78" height="179.47" style="fill: none;"/>
    </clipPath>
  </defs>
  <g style="clip-path: url(#clippath);">
    <path d="M38.75,93.74v-26.52c0-1.54.7-2.65,1.67-3.49,17.17-14.38,47.73-24.98,84.44-24.98v28.61c-30.57,0-61.27,5.72-84.86,24.7-.84.7-1.26,1.12-1.26,1.67ZM121.66,100.02c-31.68,1.95-61.97,11.72-82.9,26.66v31.26c19.47-13.44,47.75-24.95,74.58-28.75.33-.04,6.88-1,7.71-1.12,1-.15,3.06-.37,3.66-1.68.13-.27.17-.63.17-.88v-26.6c0,.7-1.26.98-3.21,1.12ZM42.21,94.76s-.04.03-.06.05c11.63,1.4,24.68,4.32,37.14,9.07,13.27-3.91,27.55-6.43,42.13-7.33.43-.03.74-.06.97-.09.05-.05.1-.09.15-.13-12.83-8.83-28.47-15.39-46.32-19.09-5.58,1.7-10.88,3.74-15.8,6.1-6.61,3.17-12.73,7.02-18.21,11.42ZM169.83,38.75h-3.96v23.61h3.96v-23.61ZM205.37,57.39c0-2.64-1.45-3.99-4.46-5.21-2.27-.88-3.08-1.39-3.08-2.67s1.15-2,2.64-2c1.22,0,2.4.24,3.69.88l.34-3.04c-1.15-.47-2.6-.71-4.13-.71-3.69,0-6.19,1.96-6.19,5.17,0,2.37,1.12,3.62,4.13,4.9,2.6,1.12,3.35,1.69,3.35,2.98,0,1.39-1.32,2.13-2.94,2.13-1.32,0-2.77-.37-4.19-1.15l-.24,3.21c1.52.61,2.98.88,4.67.88,3.75,0,6.43-1.86,6.43-5.38ZM180.45,99.89c-6.63-2.43-8.15-4.2-8.15-7.03,0-3.15,3.02-5.19,7.82-5.19,2.76,0,5.58.53,9.13,1.97l.72-7.49c-3.55-1.18-6.9-1.64-10.91-1.64-9.59,0-16.09,5.12-16.09,13.27,0,6.5,3.42,10.18,11.43,13.14,6.77,2.56,8.67,4.4,8.67,7.88,0,3.68-3.15,5.72-8.21,5.72-3.15,0-6.83-.72-10.64-2.63l-.85,8.08c3.74,1.31,7.75,1.97,12.02,1.97,10.64,0,16.95-5.39,16.95-14.32,0-6.77-3.55-10.71-11.89-13.73ZM225.86,37.87h-3.96v3.96h3.96v-3.96ZM264.96,56.61c0,3.89,1.25,6.12,5.28,6.12,1.01,0,1.96-.17,2.74-.44l-.1-3.01c-.51.2-1.08.34-1.73.34-2.16,0-2.6-1.29-2.6-4.06v-7.54h4.23v-2.94h-4.23v-5.07l-3.55,1.22v3.86h-3.11v2.94h3.08v8.59ZM221.5,119.92c-7.42,0-12.68-5.12-12.68-15.96s4.99-15.63,12.61-15.63c3.42,0,5.91.53,8.8,2.04l.53-7.95c-3.35-1.31-6.24-1.58-9.98-1.58-13.2,0-21.74,8.54-21.74,23.39s8.54,23.39,22.27,23.39c3.74,0,7.16-.53,9.72-1.51l-.26-7.95c-3.22,1.38-5.98,1.77-9.26,1.77ZM301.61,53.7c0-5.41,3.55-9.06,8.63-9.06s8.62,3.65,8.62,9.06-3.55,9.06-8.62,9.06-8.63-3.65-8.63-9.06ZM305.54,53.7c0,3.69,1.83,6.02,4.7,6.02s4.7-2.33,4.7-6.02-1.83-6.02-4.7-6.02-4.7,2.33-4.7,6.02ZM225.76,62.36v-17.32h-3.75v17.32h3.75ZM210.31,56.61c0,3.89,1.25,6.12,5.28,6.12,1.01,0,1.96-.17,2.74-.44l-.1-3.01c-.51.2-1.08.34-1.73.34-2.16,0-2.6-1.29-2.6-4.06v-7.54h4.23v-2.94h-4.23v-5.07l-3.55,1.22v3.86h-3.11v2.94h3.08v8.59ZM175.34,62.36h3.69v-8.05c0-1.89.24-3.21.74-4.16.78-1.42,2.06-2.37,3.52-2.37,3.08,0,3.31,2.6,3.31,6.12v8.46h3.72v-10.01c0-4.67-1.56-7.71-6.02-7.71-2.33,0-4.26,1.18-5.34,3.21h-.07c0-.91-.03-2.06-.1-2.81h-3.59c.13,1.66.13,3.48.13,5.24v12.07ZM330.83,39.73c.61,0,1.15.1,1.69.3l.3-3.08c-.74-.2-1.56-.3-2.47-.3-4.13,0-5.72,2.54-5.72,7v1.42h-3.65v2.94h3.65v14.34h3.69v-14.34h4.26v-2.94h-4.26v-1.49c0-2.74.64-3.86,2.5-3.86ZM388.55,107.44h16.16v-7.56h-16.16v-10.97h17.01v-7.62h-26.08v45.85h26.47v-7.69h-17.41v-12.02ZM547.19,81.3h-10.71l-13.53,20.1h-.13v-20.1h-9.2v45.85h9.2v-22.27h.13l16.29,22.27h11.56l-19.25-24.44,15.63-21.42ZM240.14,59.28c-.51.2-1.08.34-1.73.34-2.16,0-2.6-1.29-2.6-4.06v-7.54h4.23v-2.94h-4.23v-5.07l-3.55,1.22v3.86h-3.11v2.94h3.08v8.59c0,3.89,1.25,6.12,5.28,6.12,1.01,0,1.96-.17,2.74-.44l-.1-3.01ZM504.95,104.22c0,15.11-8.34,23.71-21.48,23.71s-21.55-8.61-21.55-23.71,8.34-23.72,21.55-23.72,21.48,8.61,21.48,23.72ZM495.16,104.22c0-11.3-4.6-16.55-11.69-16.55s-11.69,5.25-11.69,16.55,4.6,16.55,11.69,16.55,11.69-5.25,11.69-16.55ZM634.03,104.22c0,15.11-8.34,23.71-21.48,23.71s-21.55-8.61-21.55-23.71,8.34-23.72,21.55-23.72,21.48,8.61,21.48,23.72ZM624.24,104.22c0-11.3-4.6-16.55-11.69-16.55s-11.69,5.25-11.69,16.55,4.6,16.55,11.69,16.55,11.69-5.25,11.69-16.55ZM569.26,100.74h-.13l-9.46-19.44h-10.25l15.11,27.79v18.07h9.2v-18.2l15.17-27.66h-9.92l-9.72,19.44ZM423.95,89.11l12.55-.07v38.1h9.33v-38.1l12.55.07v-7.82h-34.42v7.82ZM258.6,45.04h-3.72v8.79c0,3.11-1.66,5.75-4.19,5.75-2.88,0-3.35-2.2-3.35-5.78v-8.76h-3.69v10.89c0,4.26,2.27,6.83,5.82,6.83,2.91,0,4.74-1.35,5.58-3.15h.07c0,1.12.07,2.03.17,2.74h3.52c-.13-1.45-.2-3.35-.2-5.51v-11.8ZM269.13,107.44h16.16v-7.56h-16.16v-10.97h17.01v-7.62h-26.08v45.85h26.47v-7.69h-17.41v-12.02ZM239.83,127.15h9.2v-45.85h-9.2v45.85ZM290.66,53.67c0,.47-.03.81-.07,1.15h-11.4c.1,3.01,2.2,4.87,5.34,4.87,1.86,0,3.38-.44,4.84-1.32l.14,3.35c-1.45.71-3.31,1.05-5.31,1.05-5.48,0-8.79-3.42-8.79-9.17,0-5.34,3.25-8.96,8.05-8.96s7.2,2.87,7.2,9.03ZM286.97,52.05c0-3.15-1.45-4.6-3.62-4.6s-3.92,1.49-4.16,4.6h7.78ZM361.16,119.92c-7.42,0-12.68-5.12-12.68-15.96s4.99-15.63,12.61-15.63c3.42,0,5.91.53,8.8,2.04l.53-7.95c-3.35-1.31-6.24-1.58-9.98-1.58-13.2,0-21.74,8.54-21.74,23.39s8.54,23.39,22.27,23.39c3.74,0,7.16-.53,9.72-1.51l-.26-7.95c-3.22,1.38-5.98,1.77-9.26,1.77ZM322.2,117.36h-.07l-14.78-36.06h-11.76v45.85h8.28l-.39-36.26h.13l14.91,36.26h11.63v-45.85h-8.34l.39,36.06Z"/>
  </g>
</svg>