<?xml version="1.0" encoding="UTF-8"?>
<svg id="_レイヤー_1" data-name="レイヤー 1" xmlns="http://www.w3.org/2000/svg" xmlns:xlink="http://www.w3.org/1999/xlink"
  viewBox="0 0 595.28 841.89">
  <defs>
    <style>
      .cls-1 {
        fill: none;
      }

      .cls-2 {
        fill: #f2f4f9;
      }

      .cls-3 {
        fill: #e8eaf1;
      }

      .cls-4 {
        clip-path: url(#clippath);
      }
    </style>
    <clipPath id="clippath">
      <polygon class="cls-1" points="113.41 325.1 114.97 841.89 595.28 841.89 593.72 325.1 113.41 325.1" />
    </clipPath>
  </defs>
  <g class="cls-4">
    <path class="cls-2"
      d="M1051.32,715.1c-257.18-57.91-537.49-58.87-814.46,0l-23.82-112.06c287.32-61.07,610.57-50.25,814.46,0l23.82,112.06Z" />
    <path class="cls-3"
      d="M307.27,1046.37c211.39-157.51,467.07-272.4,744.05-331.27l-23.82-112.06c-287.32,61.07-578.22,202.43-744.05,331.27l23.82,112.06Z" />
    <path class="cls-3"
      d="M236.86,715.1c211.39-157.51,467.07-272.4,744.05-331.27l-23.82-112.06c-287.32,61.07-578.22,202.43-744.05,331.27l23.82,112.06Z" />
  </g>
</svg>