<?xml version="1.0" encoding="UTF-8"?>
<svg id="_レイヤー_2" data-name="レイヤー 2" xmlns="http://www.w3.org/2000/svg" viewBox="0 0 595.28 121.29">
  <defs>
    <style>
      .cls-1 {
        fill: #1c3177;
      }

      .cls-2 {
        fill: #7f96c2;
      }
    </style>
  </defs>
  <g id="LOGO">
    <g>
      <path class="cls-1" d="M131.08,2.1v23.61h-3.96V2.1h3.96ZM136.46,8.39h3.59c.07.74.1,1.89.1,2.81h.07c1.08-2.03,3.01-3.21,5.34-3.21,4.46,0,6.02,3.04,6.02,7.71v10.01h-3.72v-8.46c0-3.52-.24-6.12-3.31-6.12-1.45,0-2.74.95-3.52,2.37-.51.95-.74,2.27-.74,4.16v8.05h-3.69v-12.07c0-1.76,0-3.59-.13-5.24ZM155.53,25.23l.24-3.21c1.42.78,2.87,1.15,4.19,1.15,1.62,0,2.94-.74,2.94-2.13,0-1.29-.74-1.86-3.35-2.98-3.01-1.28-4.13-2.54-4.13-4.9,0-3.21,2.5-5.17,6.19-5.17,1.52,0,2.98.24,4.13.71l-.34,3.04c-1.29-.64-2.47-.88-3.69-.88-1.49,0-2.64.71-2.64,2s.81,1.79,3.08,2.67c3.01,1.22,4.46,2.57,4.46,5.21,0,3.52-2.67,5.38-6.43,5.38-1.69,0-3.15-.27-4.67-.88ZM171.56,19.96v-8.59h-3.08v-2.94h3.11v-3.86l3.55-1.22v5.07h4.23v2.94h-4.23v7.54c0,2.77.44,4.06,2.6,4.06.64,0,1.22-.14,1.73-.34l.1,3.01c-.78.27-1.73.44-2.74.44-4.02,0-5.28-2.23-5.28-6.12ZM187.11,1.22v3.96h-3.96V1.22h3.96ZM187.01,8.39v17.32h-3.75V8.39h3.75ZM193.47,19.96v-8.59h-3.08v-2.94h3.11v-3.86l3.55-1.22v5.07h4.23v2.94h-4.23v7.54c0,2.77.44,4.06,2.6,4.06.64,0,1.22-.14,1.73-.34l.1,3.01c-.78.27-1.73.44-2.74.44-4.02,0-5.28-2.23-5.28-6.12ZM204.9,19.28v-10.89h3.69v8.76c0,3.59.47,5.78,3.35,5.78,2.54,0,4.19-2.64,4.19-5.75v-8.79h3.72v11.8c0,2.16.07,4.06.2,5.51h-3.52c-.1-.71-.17-1.62-.17-2.74h-.07c-.85,1.79-2.67,3.15-5.58,3.15-3.55,0-5.82-2.57-5.82-6.83ZM226.21,19.96v-8.59h-3.08v-2.94h3.11v-3.86l3.55-1.22v5.07h4.23v2.94h-4.23v7.54c0,2.77.44,4.06,2.6,4.06.64,0,1.22-.14,1.73-.34l.1,3.01c-.78.27-1.73.44-2.74.44-4.02,0-5.28-2.23-5.28-6.12ZM236.65,16.95c0-5.34,3.25-8.96,8.05-8.96s7.2,2.87,7.2,9.03c0,.47-.03.81-.07,1.15h-11.4c.1,3.01,2.2,4.87,5.34,4.87,1.86,0,3.38-.44,4.84-1.32l.14,3.35c-1.45.71-3.31,1.05-5.31,1.05-5.48,0-8.79-3.42-8.79-9.17ZM244.6,10.79c-2.2,0-3.92,1.49-4.16,4.6h7.78c0-3.15-1.45-4.6-3.62-4.6ZM262.86,17.05c0-5.41,3.55-9.06,8.63-9.06s8.62,3.65,8.62,9.06-3.55,9.06-8.62,9.06-8.63-3.65-8.63-9.06ZM276.19,17.05c0-3.69-1.83-6.02-4.7-6.02s-4.7,2.33-4.7,6.02,1.83,6.02,4.7,6.02,4.7-2.33,4.7-6.02ZM282.24,11.36v-2.94h3.65v-1.42c0-4.46,1.59-7,5.72-7,.91,0,1.73.1,2.47.3l-.3,3.08c-.54-.2-1.08-.3-1.69-.3-1.86,0-2.5,1.12-2.5,3.86v1.49h4.26v2.94h-4.26v14.34h-3.69v-14.34h-3.65ZM151.22,45.49l-.72,7.49c-3.55-1.45-6.37-1.97-9.13-1.97-4.8,0-7.82,2.04-7.82,5.19,0,2.82,1.51,4.6,8.15,7.03,8.34,3.02,11.89,6.96,11.89,13.73,0,8.93-6.31,14.32-16.95,14.32-4.27,0-8.28-.66-12.02-1.97l.85-8.08c3.81,1.9,7.49,2.63,10.64,2.63,5.06,0,8.21-2.04,8.21-5.72,0-3.48-1.9-5.32-8.67-7.88-8.01-2.96-11.43-6.63-11.43-13.14,0-8.15,6.5-13.27,16.09-13.27,4.01,0,7.36.46,10.91,1.64ZM192.01,81.49l.26,7.95c-2.56.99-5.98,1.51-9.72,1.51-13.73,0-22.27-8.54-22.27-23.39s8.54-23.39,21.74-23.39c3.74,0,6.63.26,9.98,1.58l-.53,7.95c-2.89-1.51-5.39-2.04-8.8-2.04-7.62,0-12.61,4.86-12.61,15.63s5.25,15.96,12.68,15.96c3.28,0,6.04-.39,9.26-1.77ZM210.27,44.64v45.85h-9.2v-45.85h9.2ZM221.31,90.49v-45.85h26.08v7.62h-17.01v10.97h16.16v7.56h-16.16v12.02h17.41v7.69h-26.47ZM283.45,80.71l-.39-36.06h8.34v45.85h-11.63l-14.91-36.26h-.13l.39,36.26h-8.28v-45.85h11.76l14.78,36.06h.07ZM331.67,81.49l.26,7.95c-2.56.99-5.98,1.51-9.72,1.51-13.73,0-22.27-8.54-22.27-23.39s8.54-23.39,21.74-23.39c3.74,0,6.63.26,9.98,1.58l-.53,7.95c-2.89-1.51-5.39-2.04-8.8-2.04-7.62,0-12.61,4.86-12.61,15.63s5.25,15.96,12.68,15.96c3.28,0,6.04-.39,9.26-1.77ZM340.73,90.49v-45.85h26.08v7.62h-17.01v10.97h16.16v7.56h-16.16v12.02h17.41v7.69h-26.47ZM419.63,44.64v7.82l-12.55-.07v38.1h-9.33v-38.1l-12.55.07v-7.82h34.42ZM466.2,67.57c0,15.11-8.34,23.71-21.48,23.71s-21.55-8.61-21.55-23.71,8.34-23.72,21.55-23.72,21.48,8.61,21.48,23.72ZM433.03,67.57c0,11.3,4.6,16.55,11.69,16.55s11.69-5.25,11.69-16.55-4.6-16.55-11.69-16.55-11.69,5.25-11.69,16.55ZM484.07,68.22v22.27h-9.2v-45.85h9.2v20.1h.13l13.53-20.1h10.71l-15.63,21.42,19.25,24.44h-11.56l-16.29-22.27h-.13ZM510.67,44.64h10.25l9.46,19.45h.13l9.72-19.45h9.92l-15.17,27.66v18.2h-9.2v-18.07l-15.11-27.79ZM595.28,67.57c0,15.11-8.34,23.71-21.48,23.71s-21.55-8.61-21.55-23.71,8.34-23.72,21.55-23.72,21.48,8.61,21.48,23.72ZM562.11,67.57c0,11.3,4.6,16.55,11.69,16.55s11.69-5.25,11.69-16.55-4.6-16.55-11.69-16.55-11.69,5.25-11.69,16.55Z"/>
      <g>
        <path class="cls-1" d="M86.11,2.1C49.41,2.1,18.84,12.7,1.67,27.08c-.98.84-1.67,1.95-1.67,3.49v26.52c0-.56.42-.98,1.26-1.67,23.59-18.98,54.29-24.7,84.86-24.7V2.1Z"/>
        <path class="cls-1" d="M86.11,88.85v-26.6c0,.7-1.26.98-3.21,1.12C51.22,65.32,20.94,75.09,0,90.03v31.26c19.47-13.44,47.75-24.95,74.58-28.75.33-.04,6.88-1,7.71-1.12,1-.15,3.06-.37,3.66-1.68.13-.27.17-.63.17-.88Z"/>
        <path class="cls-2" d="M86.11,62.25h0c0-.7-.7-1.4-1.81-2.23-14.59-10.17-32.87-17.37-53.93-20.75-10.45,3.79-20.28,9.03-29.11,16.14C.42,56.11,0,56.53,0,57.09s.28.7,1.4.84c13.75,1.46,29.73,5.11,44.42,11.44,11.79-3.15,24.32-5.21,37.08-5.99,1.95-.14,3.21-.42,3.21-1.12Z"/>
      </g>
    </g>
  </g>
</svg>