<svg height="296.52734pt" viewBox="0 0 296.53125 296.52734" width="296.53125pt" xmlns="http://www.w3.org/2000/svg"><path d="m218.73437 197.73047c.55469 1.51953.55469 2.03906.20703 2.24218-.32422.1875-.91015.13282-1.7539-1.1914-.0312-.0508-.0625-.10156-.0937-.15235-.0156-.0312-.0352-.0625-.0547-.0937-5.57422-9.21875-9.87891-21.24218-10.73828-25.11718-1.07422-4.84375-3.00391-10.98828-3.03907-28.11328-.043-20.55079-5.625-23.02735-21.73828-24.34766-20.10937-1.64453-22.10937 10.55078-22.85156 14.29687-2.39453 12.03907-4.00781 22.58985-1.82031 25.46875 2.99609 3.98438 3.89453 6.47266 7 12.69532 5.40234 10.80078 13.5664 41.77734 17.91015 59.08203.4336 1.73437.57032 2.28125.22657 2.48437-.34766.20313-.98828.22657-1.81641-1.72656-5.89062-14.09375-15.79687-37.11328-19.25-44.80859-4.9375-11.00391-10.65625-13.53125-12.65234-13.53125h-.004-.004c-1.99609 0-7.71484 2.52734-12.65234 13.53125-3.45312 7.69531-13.35937 30.71484-19.25 44.80859-.82812 1.95313-1.46875 1.92969-1.81641 1.72656-.34375-.20312-.20703-.75.22657-2.48437 4.34375-17.30469 12.50781-48.28125 17.91015-59.08203 3.10547-6.22266 4.00391-8.71094 7-12.69532 2.1875-2.8789.57422-13.42968-1.8164-25.46875-.7461-3.74609-2.7461-15.9414-22.85547-14.29687-16.11328 1.32031-21.69531 3.79687-21.73828 24.34766-.0352 17.125-1.96485 23.26953-3.03907 28.11328-.85937 3.875-5.16796 15.89843-10.73828 25.11718-.0195.0312-.0391.0625-.0547.0937-.0312.0508-.0625.10157-.0937.15235-.84375 1.32422-1.42969 1.3789-1.75391 1.1914-.34766-.20312-.34766-.72265.20703-2.24218 2.21094-6.23047 5.58594-18.55078 5.58594-30.79688 0-9.20703-.97656-40.71484.0937-46.85547 1.07812-6.15234-.69531-15.16015 16.57422-20.16015 0 0 10.39843-3.03907 21.03125-4.78125 4.4375-1.125 11.01953-1.21485 13.30859-6 3.31641-6.94532 4.26953-18.78125 9.78516-25.42578.52734-.63282 1.4414-1.60938 2.05859-2.98829.82813-1.85546 1.87891-2.17187 2.03125-2.17187s1.20313.31641 2.03125 2.17187c.61719 1.37891 1.53516 2.35547 2.05859 2.98829 5.51563 6.64453 6.46875 18.48046 9.78125 25.42578 2.29297 4.78515 8.875 4.875 13.3125 6 10.63282 1.74218 21.03125 4.78125 21.03125 4.78125 17.26954 5 15.4961 14.00781 16.57422 20.16015 1.07032 6.14063.0937 37.64844.0937 46.85547 0 12.2461 3.375 24.56641 5.58594 30.79688zm69.11719 90.49609h-279.16406l28.38281-28.76172v-222.40234l-28.38281-28.76172h279.16406l-28.38281 28.76172v222.40234zm-287.85156 8.30078h296.53125v-296.52734h-296.53125zm0 0" fill="#231f20"/></svg>